<?xml version="1.0" encoding="utf-8"?>
<!-- Generator: Adobe Illustrator 19.1.0, SVG Export Plug-In . SVG Version: 6.00 Build 0)  -->
<svg version="1.1" id="Layer_2" xmlns="http://www.w3.org/2000/svg" xmlns:xlink="http://www.w3.org/1999/xlink" x="0px" y="0px"
	 viewBox="0 0 728.1 261.3" style="enable-background:new 0 0 728.1 261.3;" xml:space="preserve">
<style type="text/css">
	.st0{fill:#004411;}
</style>
<g>
	<polygon class="st0" points="244.6,46.5 191,0 191,32.5 151.6,32.5 151.6,0 98,46.5 151.6,93 151.6,62 191,62 191,93 	"/>
	<path class="st0" d="M184.7,102.3h-26.4c-2.4,0-4.3,1.9-4.3,4.3v97.3c0,2.4,1.9,4.3,4.3,4.3h26.4c2.4,0,4.3-1.9,4.3-4.3v-97.3
		C189,104.2,187.1,102.3,184.7,102.3z"/>
	<path class="st0" d="M122.1,102.5c-4.2,0-108.3,0-113.8,0s-7.4,1.7-7.4,5.7c0,4,0,86.1,0,93c0,4.5,1.7,7.1,5.1,7.1
		c3.4,0,19.6,0,24.2,0c4.6,0,5.1-4.4,5.1-7.8c0-3.4,0-62.5,0-69c0-6.5,5.1-5.8,9.2-5.8s49.9,0,55.2,0s5.3,2.2,5.3,3.4
		c0,1.2,0,4.4,0,9.9c0,5.6-4.6,4.6-7.8,4.6c-3.1,0-42.4,0-47.2,0s-5.3,3.6-5.3,5.3c0,1.7,0,7.8,0,11.9c0,4.1,4.1,5.8,6.8,5.8
		c2.7,0,45.5,0,48.9,0c3.4,0,3.9,2.2,3.9,4.8c0,2.7,0,6.5,0,9.9c0,3.4-1.5,3.6-5.8,3.6c-4.4,0-44.1,0-48.4,0c-4.4,0-5.3,3.9-5.3,6.8
		l0.1,10.4c0,7.4,6.7,5.9,11.6,5.9c4.9,0,56.5,0,66.6,0c10.1,0,15.8-9.4,15.8-15.8c0-6.4,0-18,0-25.7c0-7.7-10.9-10.6-10.9-10.6
		v-1.7c9.6-2.2,11.6-8.4,11.6-13.8c0-5.4,0-11.1,0-23C139.6,105.7,126.3,102.5,122.1,102.5z"/>
	<path class="st0" d="M343.2,102.2c-2,0-4,1.6-4,5.6c0,4,0,77.6,0,82.7c0,5.1,3.5,17.6,14.4,17.6c10.9,0,98.1,0,101.7,0
		c3.6,0,5.4-2.4,5.4-5.1c0-2.7,0-10.4,0-12.5c0-2.2-1.6-5.8-5.3-5.8s-69.8,0-73.2,0c-3.5,0-9.4,1.1-9.4-6.9c0-8,0-62.9,0-66.7
		c0-3.8,1.1-8.9-4.5-8.9C362.7,102.2,345.9,102.2,343.2,102.2z"/>
	<path class="st0" d="M474,102.4c2.4,0,23.1,0,25.1,0c2,0,4.7,0.9,4.7,5.1c0,4.2,0,64.9,0,68.5c0,3.6,0,8.9,6.4,8.9
		c6.4,0,71.9,0,75,0c3.1,0,6.4,0,6.4,4.5c0,4.5,0,12,0,14.2c0,2.2-1.1,4.7-5.6,4.7c-4.5,0-93.4,0-98.3,0s-18.2-1.5-18.2-18.2
		c0-16.7,0-75,0-79.4C469.5,106.4,470.2,102.4,474,102.4z"/>
	<path class="st0" d="M591.5,120.4c0,3.1-2.6,5.7-5.7,5.7l-66.6,0c-3.1,0-5.7-2.6-5.7-5.7v-12.9c0-3.2,2.6-5.7,5.7-5.7h66.6
		c3.2,0,5.7,2.6,5.7,5.7V120.4z"/>
	<path class="st0" d="M591.5,159.7c0,3.1-2.6,5.7-5.7,5.7l-66.6,0c-3.1,0-5.7-2.6-5.7-5.7v-12.9c0-3.2,2.6-5.7,5.7-5.7l66.6,0
		c3.2,0,5.7,2.6,5.7,5.7V159.7z"/>
	<path class="st0" d="M609.4,102.3c4.2,0,23.7,0,25.8,0c2.1,0,5,1.8,5,4.4c0,2.5,0,29.3,0,30.8s0.4,6.5,3.5,6.5c3.1,0,42.7,0,44.8,0
		c2.1,0,4.1-1.7,4.1-4.7c0-3,0-29.4,0-30.9c0-1.5,0.2-6.1,4-6.1c3.8,0,24.2,0,26.5,0c2.3,0,5,1.9,5,5.1c0,3.2,0,79.3,0,82.7
		c0,3.4-0.5,18.2-18.2,18.2c-17.7,0-97.1,0-99.8,0c-2.7,0-4-1.6-4-4c0-2.4,0-12.5,0-14.3c0-1.8,0.8-5,4.7-5c3.9,0,71.6,0,74.7,0
		c3.1,0,7.3-1.1,7.3-5.6s0-5.3,0-6.2c0-4.4-1.1-7-8.6-7c0,0-61.2,0-65.3,0c-4.1,0-13.4-3-13.4-12.5c0-9.4,0-45.5,0-47.2
		C605.5,104.8,606.8,102.3,609.4,102.3z"/>
	<path class="st0" d="M324.9,105.9c0,2.1,0,13.8,0,16.8c0,3-2.7,3.3-7.2,3.3c-4.5,0-63.2,0-70.7,0c-7.5,0-8.8,4.9-8.8,10.2
		c0,5.3,5.3,7.8,9,7.8c3.8,0,41.7,0,57.6,0c15.9,0,20,9.5,20,20.3c0,10.7,0,27.5,0,27.5c0,13.6-14.7,16.9-19.2,16.9
		c-4.5,0-95.5,0-98.7,0s-3.9-3.1-3.9-4.8c0-1.7,0-12,0-14.5c0-2.5,2.9-4.1,5.1-4.1c2.3,0,65.3,0,73.2,0c7.9,0,8-5.4,8-11.2
		c0-5.8-5.9-7.3-8.9-7.3c-3,0-54.6,0-65,0c-10.4,0-12.6-11.9-12.6-15.3c0-3.4,0-18.1,0-32.4c0-14.4,16.9-16.6,21.1-16.6
		c0,0,95.8,0,97,0C321,102.4,324.9,101.9,324.9,105.9z"/>
</g>
<g>
	<path class="st0" d="M1.6,227.2h20.8v6.8h-6.5v27.3h-8V234H1.6V227.2z"/>
	<path class="st0" d="M27.5,261.3v-34.1h8v13.1h5.6v-13.1h8v34.1h-8v-14.2h-5.6v14.2H27.5z"/>
	<path class="st0" d="M55.3,261.3v-34.1h18.3v6.8H63.3v6.3h10v6.8h-10v7.4h10.9v6.8H55.3z"/>
	<path class="st0" d="M94.3,261.3v-34.1h9.5c3.1,0,7.6,0.3,9.8,2.8c1.9,2.1,2.2,4.6,2.2,7.4c0,3.7-0.9,7.8-4.5,9.5
		c-2.8,1.4-6,1-9,1.1v13.3H94.3z M102.3,241.9c1.5,0,3.2,0.1,4.5-0.9c0.8-0.9,1-2.3,1-3.5c0-1.3-0.1-3.3-1.5-4
		c-0.8-0.3-1.9-0.3-3.1-0.3h-0.9V241.9z"/>
	<path class="st0" d="M121.6,261.3v-34.1h18.3v6.8h-10.3v6.3h10v6.8h-10v7.4h10.9v6.8H121.6z"/>
	<path class="st0" d="M168,250.4c0,7.7-2.7,11.7-10.8,11.7s-10.9-4-10.9-11.7v-13.9c0-6.6,3.9-10.2,10.9-10.2S168,230,168,236.5
		V250.4z M160,237.1c0-2.1-0.2-4.6-2.8-4.6c-2.5,0-2.9,2.5-2.9,4.6v14c0,2,0.3,4.9,2.9,4.9s2.8-2.9,2.8-4.9V237.1z"/>
	<path class="st0" d="M174.5,261.3v-34.1h9.5c3.1,0,7.6,0.3,9.8,2.8c1.9,2.1,2.2,4.6,2.2,7.4c0,3.7-0.9,7.8-4.5,9.5
		c-2.8,1.4-6,1-9,1.1v13.3H174.5z M182.5,241.9c1.5,0,3.2,0.1,4.5-0.9c0.8-0.9,1-2.3,1-3.5c0-1.3-0.1-3.3-1.5-4
		c-0.8-0.3-1.9-0.3-3.1-0.3h-0.9V241.9z"/>
	<path class="st0" d="M201.3,261.3v-34.1h8v27.3h9.8v6.8H201.3z"/>
	<path class="st0" d="M224.2,261.3v-34.1h18.3v6.8h-10.3v6.3h10v6.8h-10v7.4h10.9v6.8H224.2z"/>
	<path class="st0" d="M285.5,251.1L285.5,251.1l2.6-23.9h7.6l-5.7,34.1h-9l-2.5-24h-0.1l-2.6,24H267l-5.7-34.1h7.7l2.4,24l0.1-0.1
		l3.2-23.9h7.7L285.5,251.1z"/>
	<path class="st0" d="M300.3,261.3v-34.1h8v13.1h5.6v-13.1h8v34.1h-8v-14.2h-5.6v14.2H300.3z"/>
	<path class="st0" d="M349.6,250.4c0,7.7-2.7,11.7-10.8,11.7s-10.9-4-10.9-11.7v-13.9c0-6.6,3.9-10.2,10.9-10.2s10.8,3.6,10.8,10.2
		V250.4z M341.6,237.1c0-2.1-0.2-4.6-2.8-4.6c-2.5,0-2.9,2.5-2.9,4.6v14c0,2,0.3,4.9,2.9,4.9s2.8-2.9,2.8-4.9V237.1z"/>
	<path class="st0" d="M369.3,261.3v-34.1h8v13.7h0.1l5.9-13.7h8.2l-7.3,15.1l7.7,19.1h-8.5l-4.4-11.9l-1.8,3.5v8.4H369.3z"/>
	<path class="st0" d="M403.8,242.2L403.8,242.2l0.6,19.1h-7.6v-34.1h8.2l6.2,19.1h0.1l-0.8-19.1h7.6v34.1H410L403.8,242.2z"/>
	<path class="st0" d="M445.9,250.4c0,7.7-2.7,11.7-10.8,11.7s-10.9-4-10.9-11.7v-13.9c0-6.6,3.9-10.2,10.9-10.2s10.8,3.6,10.8,10.2
		V250.4z M437.9,237.1c0-2.1-0.2-4.6-2.8-4.6c-2.5,0-2.9,2.5-2.9,4.6v14c0,2,0.3,4.9,2.9,4.9s2.8-2.9,2.8-4.9V237.1z"/>
	<path class="st0" d="M474.7,251.1L474.7,251.1l2.6-23.9h7.6l-5.7,34.1h-9l-2.5-24h-0.1l-2.6,24h-8.9l-5.7-34.1h7.7l2.4,24l0.1-0.1
		l3.2-23.9h7.7L474.7,251.1z"/>
	<path class="st0" d="M503.5,261.3v-34.1h11.3l4.1,20.2h0.1l4.3-20.2h11.2v34.1h-7.6l0.8-26.8h-0.1l-5.6,26.8h-6l-5.5-26.8h-0.1
		l0.7,26.8H503.5z"/>
	<path class="st0" d="M539.4,261.3l7.5-34.1h9.6l7.4,34.1h-8.1l-1.1-6.6h-6.3l-1,6.6H539.4z M551.7,233.4L551.7,233.4l-2.4,15.3h4.6
		L551.7,233.4z"/>
	<path class="st0" d="M565.1,227.2h20.8v6.8h-6.5v27.3h-8V234h-6.3V227.2z"/>
	<path class="st0" d="M591.2,261.3v-34.1h18.3v6.8h-10.3v6.3h10v6.8h-10v7.4h10.9v6.8H591.2z"/>
	<path class="st0" d="M624,261.3h-8v-34.1h11.7c6.6,0,9.8,2.6,9.8,9.4c0,3.6-0.9,6.2-4.2,7.8v0.1c2.2,0.5,3.8,2,4,4.4
		c0.2,2.7,0.3,8.6,0.7,10.8c0.2,0.5,0.4,0.9,0.8,1.2v0.5H630c-0.2-0.6-0.4-1.3-0.5-2c-0.1-3,0-5.8-0.2-7.9c-0.2-2.1-0.9-3.5-2.7-3.6
		H624V261.3z M624,241.7h2.7c2.3,0,2.9-2.1,2.9-4.2c0-4-1.7-4.2-5.6-4.1V241.7z"/>
	<path class="st0" d="M644,261.3v-34.1h8v34.1H644z"/>
	<path class="st0" d="M657,261.3l7.5-34.1h9.6l7.4,34.1h-8.1l-1.1-6.6H666l-1,6.6H657z M669.3,233.4L669.3,233.4l-2.4,15.3h4.6
		L669.3,233.4z"/>
	<path class="st0" d="M685.9,261.3v-34.1h8v27.3h9.8v6.8H685.9z"/>
	<path class="st0" d="M714.8,249.9v2.4c0,2,0.6,3.7,3.2,3.7c1.9,0,2.7-1.7,2.7-3.4c0-2.9-2.4-4-4.5-5.2c-2.5-1.4-4.6-2.7-6.1-4.5
		c-1.5-1.7-2.3-3.8-2.3-6.8c0-6.4,3.9-9.7,10.1-9.7c7,0,10.5,4.6,10.1,11.1h-7.4c-0.1-2,0-4.7-2.6-4.9c-1.6-0.1-2.6,0.8-2.8,2.3
		c-0.2,2,0.8,3.1,2.4,4.2c3,1.9,5.6,3.1,7.5,4.8c1.9,1.7,3,4,3,8.1c0,6.6-3.6,10.2-10.3,10.2c-7.3,0-10.4-4.1-10.4-8.6v-3.6H714.8z"
		/>
</g>
</svg>
