<svg xmlns="http://www.w3.org/2000/svg" viewBox="0 0 12.84 7.83"><defs><style>.cls-1{fill:#e30613;}</style></defs><g id="Layer_2" data-name="Layer 2"><g id="Layer_1-2" data-name="Layer 1"><path class="cls-1" d="M12.74,1.58a2.21,2.21,0,0,1-.18.36c-.17.24-.4.49-.56.41s0-.05,0-.05a2.66,2.66,0,0,0,.58-1.15c.07-.58-.3-.53-.46-.44a1.63,1.63,0,0,0-.66,1.49,1.13,1.13,0,0,0,.05.35l-.17.16s0-.13,0-.2a.87.87,0,0,0-.42-.83,1.12,1.12,0,0,0-.21-.17,1.55,1.55,0,0,0,0-.34c0-.39-.49-.2-.32.25a.75.75,0,0,0,.1.17c0,.19-.13.6-.14.65a2.52,2.52,0,0,1-.25.61c-.15.26-.4.51-.57.41s-.1-.2-.1-.2a1.29,1.29,0,0,0,.67-1c.08-.58-.32-.53-.47-.44A1.52,1.52,0,0,0,9,2.86a.54.54,0,0,1-.15-.15,2.26,2.26,0,0,0,.08-1.07c-.15-.31-.56-.12-.54.31a1.36,1.36,0,0,0,.13.52,1.57,1.57,0,0,0,.16.32c0,.13-.06.26-.09.35a3.44,3.44,0,0,1-.22.51,3.66,3.66,0,0,1,0-.51,2.64,2.64,0,0,1,.08-.78c0-.21-.39-.22-.42-.08s0,.06,0,.1-.12.23-.16.29a1.1,1.1,0,0,1-.14.18.62.62,0,0,0-.12-.23c-.17-.19-.49-.22-.61.22a.8.8,0,0,0,0,.15.17.17,0,0,0-.19.08,3.06,3.06,0,0,0-.18,1.14s0,0,0,.06-.22.35-.26.12a4,4,0,0,1,.11-1A.54.54,0,0,0,6.31,3c-.12-.13-.32-.1-.52.27,0,0-.12.23-.16.31,0-.1,0-.18,0-.22s0-.16,0-.17a.18.18,0,0,0-.09,0,1.57,1.57,0,0,0-.25.14.13.13,0,0,0-.06.14s0,.2,0,.29l-.07.49a1,1,0,0,0,0,.16,2.75,2.75,0,0,1-.2.38c-.17.25-.45.47-.59.35A.29.29,0,0,1,4.24,5a1.66,1.66,0,0,0,.7-1c.09-.58-.28-.54-.45-.46A1.64,1.64,0,0,0,3.76,5c0,.95.69.64.94.36A1.79,1.79,0,0,0,5,4.89c0,.22-.08.38-.09.39s.22.1.42-.18a.76.76,0,0,0,.11-.33c0-.29.09-.57.11-.72s0-.08,0-.15.16-.33.2-.4.2-.15.18,0a5.63,5.63,0,0,0-.11,1c0,.41.33.67.68.07l.08-.14c.12.21.39.36.74,0A1.7,1.7,0,0,0,7.71,3a2.11,2.11,0,0,0,.18-.24l0-.09c0,.18,0,.35,0,.44s0,.43,0,.7.08.41.23.42.16-.06.29-.29A4.59,4.59,0,0,0,8.78,3a.31.31,0,0,1,0-.08A.64.64,0,0,0,9,3.06v.06c0,.94.73.6,1,.3A2,2,0,0,0,10.21,3a.48.48,0,0,0,.55.19,2.07,2.07,0,0,0,.81-.51c.22.25.64,0,.81-.2a2.15,2.15,0,0,0,.45-.86c0-.15-.05-.19-.09-.07M4.28,4.18c.06-.19.16-.29.23-.28s.12.23,0,.47a.94.94,0,0,1-.32.37,1.72,1.72,0,0,1,.07-.56M7.1,2.87c.05-.1.23-.07.33.18a.36.36,0,0,1-.28.05c-.11,0-.08-.17-.05-.23m.39.78c0,.46-.25.55-.36.56S7,4,7,3.78a1.81,1.81,0,0,1,.12-.53h0a.44.44,0,0,0,.33-.07,1.33,1.33,0,0,1,0,.46m1.17-1.3c-.07-.18-.11-.45-.05-.5s.13,0,.15.19a2.69,2.69,0,0,1,0,.47,1.44,1.44,0,0,0-.07-.16m.82-.07c0-.19.14-.29.21-.29s.14.24.05.48a.73.73,0,0,1-.31.39,1.61,1.61,0,0,1,.05-.58m1.23.6c-.06-.14-.09-.41-.25-.37h0a6.87,6.87,0,0,0,.19-.78,1.47,1.47,0,0,1,.27.59c0,.23-.1.56-.19.56M11.9,1.37c0-.2.15-.3.22-.3s.12.19.07.45a1.79,1.79,0,0,1-.31.59,2,2,0,0,1,0-.74"/><path class="cls-1" d="M3.54,3.76a.41.41,0,0,0-.18,0A1.28,1.28,0,0,0,3,4.06a.3.3,0,0,0-.13.25,4.16,4.16,0,0,1,0,.44c0,.07,0,.29,0,.29-.46.51-1,1-1.51.78S.71,4.64.9,3.72A4.54,4.54,0,0,1,2.2,1.24,1.66,1.66,0,0,1,3.3.66c.39,0,.47.58.32,1A2.22,2.22,0,0,1,2.7,2.74c-.17.11-.42.24-.34.41s.23.11.36,0A3.29,3.29,0,0,0,4.09,1.84C4.37,1.3,4.51.36,4,.1,3.29-.25,2.36.41,1.87.9A5.67,5.67,0,0,0,.47,2.83c-.41.89-.8,3,0,3.59,1.08.83,2-.42,2.28-.73a16.93,16.93,0,0,1-.45,2.05c0,.11.47.21.77-.29a2,2,0,0,0,.2-.64c.09-.54.18-1.08.22-1.36s.16-1.17.19-1.37,0-.31-.11-.32"/><path class="cls-1" d="M11.93,3.69c-.15,0-2,.49-4.16,1.25-1.95.69-3.7,1.52-3.85,1.59a.48.48,0,0,0-.14.09.35.35,0,0,0-.15.43c.08.18.3.12.39.08l2-1c.06,0,0-.07.11-.11s2.12-.83,2.18-.86,0-.07.09-.1l2.18-.78a.2.2,0,0,0,.11-.07l.07,0L11.27,4s.05-.05.08-.07a3.45,3.45,0,0,1,.51-.15c.19-.05.29-.16.07-.12"/></g></g></svg>